<svg width="24" height="24" viewBox="0 0 24 24" fill="none" xmlns="http://www.w3.org/2000/svg">
<g id="IMAGE">
<g id="Group">
<path id="Vector" d="M21.4252 7.6401C19.7332 3.97305 16.0308 1.60396 11.9936 1.60396C7.0829 1.60396 2.96037 5.03207 1.88633 9.61983L1.59734 9.14486C1.37026 8.77183 0.884217 8.65328 0.511189 8.88063C0.138425 9.10745 0.0198783 9.59375 0.246961 9.96678L1.7259 12.3975C1.7288 12.4023 1.73301 12.4057 1.73591 12.4104C1.76041 12.4486 1.7886 12.4839 1.81916 12.5174C1.82627 12.5253 1.83206 12.5342 1.83944 12.5419C1.87843 12.5811 1.92137 12.6162 1.968 12.6467C1.98012 12.6546 1.99355 12.6602 2.0062 12.6675C2.04176 12.6881 2.07785 12.7071 2.11658 12.7221C2.13502 12.7292 2.15399 12.7339 2.17295 12.7397C2.20773 12.7503 2.2425 12.7592 2.27912 12.765C2.2886 12.7666 2.29756 12.7705 2.30704 12.7716C2.33866 12.775 2.37 12.7769 2.40135 12.7769C2.45404 12.7769 2.5062 12.7713 2.55731 12.7611C2.58839 12.7547 2.61737 12.7437 2.64714 12.7339C2.66637 12.7276 2.68613 12.7237 2.70483 12.716C2.73855 12.7021 2.76964 12.6833 2.80072 12.6649C2.81363 12.6573 2.82786 12.6517 2.8405 12.6433C2.88371 12.6143 2.92401 12.5814 2.96089 12.5445L4.98199 10.5234C5.29074 10.2149 5.29074 9.71441 4.98199 9.40592C4.6735 9.09717 4.17297 9.09717 3.86449 9.40592L3.4659 9.8045C4.43904 6.0031 7.8935 3.18432 11.9939 3.18432C15.4167 3.18432 18.5556 5.19303 19.9903 8.30212C20.1728 8.69833 20.6428 8.87114 21.0388 8.68858C21.4352 8.50576 21.6081 8.03631 21.4252 7.6401Z" fill="#3DDC80"/>
<path id="Vector_2" d="M23.7259 14.0066L22.2469 11.5759C22.2443 11.5714 22.2403 11.568 22.2374 11.5635C22.2124 11.5242 22.1834 11.4879 22.1521 11.4536C22.1458 11.4465 22.1405 11.4383 22.1339 11.4315C22.0949 11.392 22.0517 11.3569 22.0051 11.3264C21.9932 11.3185 21.9801 11.3132 21.9677 11.3061C21.9321 11.2853 21.8955 11.2663 21.8568 11.2513C21.8383 11.2442 21.8194 11.2397 21.8004 11.2339C21.7656 11.2234 21.7308 11.2144 21.6942 11.2086C21.6847 11.207 21.6758 11.2031 21.666 11.202C21.6523 11.2005 21.6389 11.2028 21.6252 11.2018C21.6073 11.2005 21.5902 11.1962 21.5717 11.1962C21.5557 11.1962 21.5409 11.1999 21.5251 11.201C21.5006 11.2023 21.4766 11.2047 21.4524 11.2084C21.4187 11.2134 21.3865 11.2213 21.3544 11.2305C21.3333 11.2365 21.3125 11.2421 21.2922 11.2497C21.2567 11.2632 21.2232 11.2803 21.1903 11.2985C21.1747 11.3072 21.1587 11.314 21.1436 11.3237C21.0962 11.3543 21.0517 11.3888 21.0119 11.4286L18.9908 13.4497C18.6821 13.7582 18.6821 14.2587 18.9908 14.5672C19.2996 14.8759 19.7996 14.8759 20.1083 14.5672L20.5069 14.1686C19.5338 17.97 16.0793 20.7888 11.9789 20.7888C8.43331 20.7888 5.24967 18.6784 3.8682 15.4126C3.69802 15.0106 3.23463 14.8217 2.83237 14.9926C2.43036 15.1628 2.24227 15.6262 2.41245 16.0285C4.04181 19.8805 7.79684 22.3694 11.9789 22.3694C16.8897 22.3694 21.0122 18.9413 22.0862 14.3533L22.3752 14.8283C22.5238 15.0727 22.7843 15.2076 23.0509 15.2076C23.1908 15.2076 23.3325 15.1705 23.4611 15.0925C23.8344 14.8659 23.9527 14.3796 23.7259 14.0066Z" fill="#3DDC80"/>
<path id="Vector_3" d="M12.7779 11.4346L11.7165 11.0458C11.7002 11.04 11.6836 11.0345 11.667 11.0295C11.246 10.9059 10.917 10.6011 10.7639 10.1933C10.6346 9.84823 10.6472 9.47336 10.7998 9.138C10.9523 8.80265 11.2263 8.54658 11.5714 8.41724C11.9162 8.28762 12.2911 8.30027 12.6267 8.45306C12.962 8.60559 13.2184 8.87957 13.3477 9.22467C13.5008 9.63326 13.9563 9.83954 14.3651 9.687C14.7737 9.53368 14.9808 9.0782 14.8275 8.66935C14.4737 7.72598 13.6865 7.07002 12.7766 6.84004V6.3287C12.7766 5.89219 12.4228 5.53839 11.9863 5.53839C11.5498 5.53839 11.196 5.89219 11.196 6.3287V6.87981C11.1359 6.89799 11.0758 6.91485 11.0163 6.93698C10.2758 7.21464 9.68805 7.76391 9.3606 8.48389C9.03341 9.2036 9.00601 10.0079 9.28367 10.7484C9.60981 11.6175 10.3053 12.2684 11.1949 12.5382L12.2563 12.927C12.2729 12.9331 12.2892 12.9386 12.3058 12.9436C12.7268 13.0672 13.0558 13.3717 13.2089 13.78C13.3382 14.1251 13.3253 14.4997 13.1731 14.8354C13.0205 15.1707 12.7466 15.4268 12.4012 15.5561C12.0558 15.6852 11.6812 15.672 11.3459 15.5203C11.0105 15.3678 10.7544 15.0938 10.6251 14.7484C10.4718 14.3396 10.016 14.1315 9.6077 14.2861C9.19911 14.4392 8.99205 14.8949 9.1451 15.3035C9.42277 16.044 9.97203 16.6317 10.692 16.9589C10.8561 17.0335 11.025 17.0888 11.1962 17.1323V17.6444C11.1962 18.0809 11.55 18.4347 11.9865 18.4347C12.4231 18.4347 12.7769 18.0809 12.7769 17.6444V17.0943C12.8369 17.0759 12.897 17.0582 12.9565 17.0361C13.697 16.7585 14.285 16.2092 14.6122 15.4892C14.9394 14.7695 14.9668 13.9652 14.6891 13.225C14.3633 12.3556 13.6675 11.7047 12.7779 11.4346Z" fill="#869B8C"/>
</g>
</g>
</svg>
